<svg width="2068" height="2160" viewBox="0 0 2068 2160" fill="none" xmlns="http://www.w3.org/2000/svg">
    <circle cx="474" cy="474" r="474" fill="url(#paint0_linear_0_1)" />
    <circle cx="474" cy="1422" r="474" fill="url(#paint1_linear_0_1)" />
    <rect width="475" height="1896" fill="url(#paint2_linear_0_1)" />
    <path
        d="M2001.14 1389.75C2001.14 1499.99 1974.01 1594.97 1919.74 1674.68C1866.31 1754.39 1789.15 1815.44 1688.24 1857.84C1588.18 1900.24 1468.61 1921.44 1329.54 1921.44C1261.7 1921.44 1196.83 1917.62 1134.93 1909.99C1073.03 1902.36 1014.52 1891.34 959.397 1876.92C905.127 1861.66 855.52 1843.43 810.577 1822.23V1534.76C886.047 1567.83 970.421 1597.93 1063.7 1625.07C1156.98 1651.36 1251.95 1664.5 1348.62 1664.5C1427.48 1664.5 1492.78 1654.33 1544.5 1633.97C1597.08 1612.77 1636.09 1583.09 1661.53 1544.94C1686.97 1505.93 1699.69 1460.56 1699.69 1408.83C1699.69 1353.72 1684.85 1307.08 1655.17 1268.92C1625.49 1230.76 1580.54 1195.99 1520.34 1164.62C1460.98 1132.39 1386.36 1098.05 1296.47 1061.59C1235.42 1036.99 1176.9 1009.01 1120.94 977.636C1065.82 946.26 1016.64 909.373 973.389 866.974C930.142 824.575 895.799 774.544 870.359 716.881C845.768 658.371 833.472 589.684 833.472 510.822C833.472 405.672 858.488 315.786 908.519 241.164C959.397 166.541 1030.63 109.302 1122.21 69.4473C1214.64 29.5921 1322.33 9.66455 1445.29 9.66455C1542.81 9.66455 1634.39 19.8403 1720.04 40.1919C1806.53 60.5435 1891.33 89.3748 1974.43 126.686L1877.76 372.177C1801.44 340.801 1727.24 315.786 1655.17 297.13C1583.94 278.475 1511.01 269.147 1436.39 269.147C1371.94 269.147 1317.25 278.899 1272.3 298.402C1227.36 317.906 1193.02 345.465 1169.27 381.081C1146.38 415.848 1134.93 457.399 1134.93 505.734C1134.93 560.005 1148.07 605.796 1174.36 643.107C1201.5 679.57 1243.05 713.065 1299.01 743.593C1355.83 774.12 1428.76 808.039 1517.79 845.351C1620.4 887.75 1707.32 932.269 1778.55 978.908C1850.63 1025.55 1905.75 1081.51 1943.9 1146.81C1982.06 1211.25 2001.14 1292.24 2001.14 1389.75Z"
        fill="url(#paint3_linear_0_1)" />
    <path
        d="M43.995 2117.44H20.745L20.62 2105.31H40.5575C43.9742 2105.31 46.8283 2104.83 49.12 2103.88C51.4117 2102.92 53.1408 2101.52 54.3075 2099.69C55.5158 2097.85 56.12 2095.62 56.12 2093C56.12 2090.08 55.5575 2087.71 54.4325 2085.88C53.3492 2084.04 51.6408 2082.71 49.3075 2081.88C46.9742 2081 44.0158 2080.56 40.4325 2080.56H26.3075V2158H9.12V2067H40.4325C45.5992 2067 50.2033 2067.5 54.245 2068.5C58.3283 2069.46 61.7867 2070.96 64.62 2073C67.4533 2075.04 69.5992 2077.6 71.0575 2080.69C72.5575 2083.77 73.3075 2087.44 73.3075 2091.69C73.3075 2095.44 72.4325 2098.9 70.6825 2102.06C68.9742 2105.19 66.3283 2107.73 62.745 2109.69C59.2033 2111.65 54.7033 2112.77 49.245 2113.06L43.995 2117.44ZM43.245 2158H15.6825L22.87 2144.5H43.245C46.6617 2144.5 49.4742 2143.94 51.6825 2142.81C53.9325 2141.69 55.5992 2140.15 56.6825 2138.19C57.8075 2136.19 58.37 2133.9 58.37 2131.31C58.37 2128.48 57.87 2126.02 56.87 2123.94C55.9117 2121.85 54.37 2120.25 52.245 2119.12C50.1617 2118 47.4117 2117.44 43.995 2117.44H26.12L26.245 2105.31H48.995L52.9325 2110C58.1825 2110.04 62.4533 2111.08 65.745 2113.12C69.0783 2115.17 71.5367 2117.79 73.12 2121C74.7033 2124.21 75.495 2127.67 75.495 2131.38C75.495 2137.21 74.2242 2142.1 71.6825 2146.06C69.1825 2150.02 65.5158 2153 60.6825 2155C55.8908 2157 50.0783 2158 43.245 2158ZM243.655 2159.25C238.53 2159.25 233.926 2158.42 229.842 2156.75C225.759 2155.08 222.28 2152.77 219.405 2149.81C216.572 2146.81 214.384 2143.33 212.842 2139.38C211.342 2135.38 210.592 2131.08 210.592 2126.5V2124C210.592 2118.79 211.342 2114.06 212.842 2109.81C214.342 2105.52 216.467 2101.83 219.217 2098.75C221.967 2095.67 225.259 2093.29 229.092 2091.62C232.926 2089.96 237.155 2089.12 241.78 2089.12C246.572 2089.12 250.801 2089.94 254.467 2091.56C258.134 2093.15 261.197 2095.4 263.655 2098.31C266.113 2101.23 267.967 2104.73 269.217 2108.81C270.467 2112.85 271.092 2117.33 271.092 2122.25V2129.19H218.092V2117.81H254.842V2116.56C254.759 2113.94 254.259 2111.54 253.342 2109.38C252.426 2107.17 251.009 2105.42 249.092 2104.12C247.176 2102.79 244.697 2102.12 241.655 2102.12C239.197 2102.12 237.051 2102.67 235.217 2103.75C233.426 2104.79 231.926 2106.29 230.717 2108.25C229.551 2110.17 228.676 2112.46 228.092 2115.12C227.509 2117.79 227.217 2120.75 227.217 2124V2126.5C227.217 2129.33 227.592 2131.96 228.342 2134.38C229.134 2136.79 230.28 2138.9 231.78 2140.69C233.322 2142.44 235.155 2143.81 237.28 2144.81C239.447 2145.77 241.905 2146.25 244.655 2146.25C248.113 2146.25 251.238 2145.58 254.03 2144.25C256.863 2142.88 259.322 2140.85 261.405 2138.19L269.717 2146.81C268.301 2148.9 266.384 2150.9 263.967 2152.81C261.592 2154.73 258.717 2156.29 255.342 2157.5C251.967 2158.67 248.072 2159.25 243.655 2159.25ZM434.065 2146.25C436.398 2146.25 438.482 2145.79 440.315 2144.88C442.148 2143.96 443.607 2142.67 444.69 2141C445.815 2139.33 446.419 2137.4 446.503 2135.19H462.065C461.982 2139.77 460.69 2143.88 458.19 2147.5C455.69 2151.12 452.357 2154 448.19 2156.12C444.065 2158.21 439.44 2159.25 434.315 2159.25C429.107 2159.25 424.565 2158.38 420.69 2156.62C416.815 2154.88 413.586 2152.44 411.003 2149.31C408.461 2146.19 406.544 2142.56 405.253 2138.44C404.003 2134.31 403.378 2129.9 403.378 2125.19V2123.19C403.378 2118.48 404.003 2114.06 405.253 2109.94C406.544 2105.81 408.461 2102.19 411.003 2099.06C413.586 2095.94 416.815 2093.5 420.69 2091.75C424.565 2090 429.086 2089.12 434.253 2089.12C439.711 2089.12 444.503 2090.19 448.628 2092.31C452.794 2094.44 456.044 2097.44 458.378 2101.31C460.753 2105.19 461.982 2109.75 462.065 2115H446.503C446.419 2112.58 445.878 2110.42 444.878 2108.5C443.878 2106.58 442.461 2105.04 440.628 2103.88C438.794 2102.71 436.565 2102.12 433.94 2102.12C431.148 2102.12 428.815 2102.71 426.94 2103.88C425.107 2105.04 423.669 2106.65 422.628 2108.69C421.628 2110.69 420.919 2112.94 420.503 2115.44C420.128 2117.9 419.94 2120.48 419.94 2123.19V2125.19C419.94 2127.94 420.128 2130.56 420.503 2133.06C420.919 2135.56 421.628 2137.81 422.628 2139.81C423.669 2141.77 425.107 2143.33 426.94 2144.5C428.815 2145.67 431.19 2146.25 434.065 2146.25ZM613.412 2062V2158H596.85V2062H613.412ZM610.787 2121.75H605.912C605.912 2117.04 606.537 2112.71 607.787 2108.75C609.037 2104.79 610.808 2101.35 613.1 2098.44C615.392 2095.48 618.121 2093.19 621.287 2091.56C624.496 2089.94 628.037 2089.12 631.912 2089.12C635.246 2089.12 638.267 2089.6 640.975 2090.56C643.725 2091.48 646.079 2092.96 648.037 2095C649.996 2097.04 651.496 2099.71 652.537 2103C653.621 2106.25 654.162 2110.21 654.162 2114.88V2158H637.537V2114.75C637.537 2111.62 637.079 2109.17 636.162 2107.38C635.246 2105.54 633.933 2104.23 632.225 2103.44C630.558 2102.65 628.496 2102.25 626.037 2102.25C623.371 2102.25 621.079 2102.77 619.162 2103.81C617.246 2104.81 615.662 2106.21 614.412 2108C613.204 2109.79 612.287 2111.85 611.662 2114.19C611.079 2116.52 610.787 2119.04 610.787 2121.75ZM810.385 2090.38V2158H793.823V2090.38H810.385ZM792.698 2072.69C792.698 2070.23 793.531 2068.19 795.198 2066.56C796.906 2064.94 799.198 2064.12 802.073 2064.12C804.948 2064.12 807.218 2064.94 808.885 2066.56C810.593 2068.19 811.448 2070.23 811.448 2072.69C811.448 2075.1 810.593 2077.12 808.885 2078.75C807.218 2080.38 804.948 2081.19 802.073 2081.19C799.198 2081.19 796.906 2080.38 795.198 2078.75C793.531 2077.12 792.698 2075.1 792.698 2072.69ZM966.795 2104.19V2158H950.295V2090.38H965.92L966.795 2104.19ZM987.358 2089.94L987.108 2105.31C986.191 2105.15 985.149 2105.02 983.983 2104.94C982.858 2104.85 981.795 2104.81 980.795 2104.81C978.253 2104.81 976.024 2105.17 974.108 2105.88C972.191 2106.54 970.587 2107.52 969.295 2108.81C968.045 2110.1 967.087 2111.69 966.42 2113.56C965.753 2115.4 965.378 2117.48 965.295 2119.81L961.733 2119.38C961.733 2115.08 962.17 2111.1 963.045 2107.44C963.92 2103.77 965.191 2100.56 966.858 2097.81C968.524 2095.06 970.608 2092.94 973.108 2091.44C975.649 2089.9 978.566 2089.12 981.858 2089.12C982.774 2089.12 983.753 2089.21 984.795 2089.38C985.878 2089.5 986.733 2089.69 987.358 2089.94ZM1325.49 2134.38C1325.49 2132.62 1325.22 2131.06 1324.68 2129.69C1324.18 2128.27 1323.24 2127 1321.86 2125.88C1320.53 2124.71 1318.64 2123.58 1316.18 2122.5C1313.76 2121.38 1310.64 2120.21 1306.8 2119C1302.55 2117.67 1298.59 2116.17 1294.93 2114.5C1291.26 2112.83 1288.03 2110.9 1285.24 2108.69C1282.49 2106.48 1280.34 2103.94 1278.8 2101.06C1277.26 2098.15 1276.49 2094.77 1276.49 2090.94C1276.49 2087.19 1277.28 2083.77 1278.86 2080.69C1280.49 2077.6 1282.78 2074.96 1285.74 2072.75C1288.7 2070.5 1292.18 2068.77 1296.18 2067.56C1300.22 2066.35 1304.68 2065.75 1309.55 2065.75C1316.3 2065.75 1322.14 2066.98 1327.05 2069.44C1332.01 2071.9 1335.84 2075.23 1338.55 2079.44C1341.26 2083.65 1342.61 2088.38 1342.61 2093.62H1325.49C1325.49 2090.79 1324.89 2088.29 1323.68 2086.12C1322.51 2083.96 1320.72 2082.25 1318.3 2081C1315.93 2079.75 1312.93 2079.12 1309.3 2079.12C1305.8 2079.12 1302.89 2079.65 1300.55 2080.69C1298.26 2081.73 1296.53 2083.15 1295.36 2084.94C1294.24 2086.73 1293.68 2088.73 1293.68 2090.94C1293.68 2092.6 1294.07 2094.1 1294.86 2095.44C1295.66 2096.73 1296.84 2097.96 1298.43 2099.12C1300.01 2100.25 1301.97 2101.31 1304.3 2102.31C1306.68 2103.27 1309.43 2104.23 1312.55 2105.19C1317.55 2106.69 1321.93 2108.35 1325.68 2110.19C1329.47 2112.02 1332.61 2114.1 1335.11 2116.44C1337.66 2118.77 1339.55 2121.4 1340.8 2124.31C1342.09 2127.23 1342.74 2130.54 1342.74 2134.25C1342.74 2138.17 1341.97 2141.67 1340.43 2144.75C1338.89 2147.83 1336.68 2150.46 1333.8 2152.62C1330.93 2154.79 1327.47 2156.44 1323.43 2157.56C1319.43 2158.69 1314.95 2159.25 1309.99 2159.25C1305.57 2159.25 1301.2 2158.67 1296.86 2157.5C1292.57 2156.29 1288.68 2154.5 1285.18 2152.12C1281.68 2149.71 1278.89 2146.67 1276.8 2143C1274.72 2139.29 1273.68 2134.96 1273.68 2130H1290.93C1290.93 2132.88 1291.39 2135.33 1292.3 2137.38C1293.26 2139.38 1294.59 2141.02 1296.3 2142.31C1298.05 2143.56 1300.09 2144.48 1302.43 2145.06C1304.76 2145.65 1307.28 2145.94 1309.99 2145.94C1313.49 2145.94 1316.36 2145.46 1318.61 2144.5C1320.91 2143.5 1322.61 2142.12 1323.74 2140.38C1324.91 2138.62 1325.49 2136.62 1325.49 2134.38ZM1510.9 2090.38V2102.25H1472.15V2090.38H1510.9ZM1482.53 2073.75H1499.09V2138.5C1499.09 2140.5 1499.36 2142.04 1499.9 2143.12C1500.44 2144.21 1501.25 2144.94 1502.34 2145.31C1503.42 2145.69 1504.71 2145.88 1506.21 2145.88C1507.3 2145.88 1508.3 2145.81 1509.21 2145.69C1510.13 2145.56 1510.9 2145.44 1511.53 2145.31L1511.59 2157.69C1510.21 2158.15 1508.65 2158.52 1506.9 2158.81C1505.19 2159.1 1503.25 2159.25 1501.09 2159.25C1497.38 2159.25 1494.13 2158.62 1491.34 2157.38C1488.55 2156.08 1486.38 2154.02 1484.84 2151.19C1483.3 2148.31 1482.53 2144.52 1482.53 2139.81V2073.75ZM1641.5 2124.88V2123.56C1641.5 2118.6 1642.21 2114.04 1643.62 2109.88C1645.04 2105.67 1647.1 2102.02 1649.81 2098.94C1652.52 2095.85 1655.83 2093.46 1659.75 2091.75C1663.66 2090 1668.12 2089.12 1673.12 2089.12C1678.21 2089.12 1682.71 2090 1686.62 2091.75C1690.58 2093.46 1693.91 2095.85 1696.62 2098.94C1699.33 2102.02 1701.39 2105.67 1702.81 2109.88C1704.23 2114.04 1704.94 2118.6 1704.94 2123.56V2124.88C1704.94 2129.79 1704.23 2134.35 1702.81 2138.56C1701.39 2142.73 1699.33 2146.38 1696.62 2149.5C1693.91 2152.58 1690.6 2154.98 1686.69 2156.69C1682.77 2158.4 1678.29 2159.25 1673.25 2159.25C1668.25 2159.25 1663.77 2158.4 1659.81 2156.69C1655.85 2154.98 1652.52 2152.58 1649.81 2149.5C1647.1 2146.38 1645.04 2142.73 1643.62 2138.56C1642.21 2134.35 1641.5 2129.79 1641.5 2124.88ZM1658 2123.56V2124.88C1658 2127.83 1658.29 2130.6 1658.87 2133.19C1659.46 2135.77 1660.35 2138.04 1661.56 2140C1662.77 2141.96 1664.33 2143.5 1666.25 2144.62C1668.21 2145.71 1670.54 2146.25 1673.25 2146.25C1675.91 2146.25 1678.21 2145.71 1680.12 2144.62C1682.04 2143.5 1683.6 2141.96 1684.81 2140C1686.06 2138.04 1686.98 2135.77 1687.56 2133.19C1688.14 2130.6 1688.44 2127.83 1688.44 2124.88V2123.56C1688.44 2120.65 1688.14 2117.92 1687.56 2115.38C1686.98 2112.79 1686.06 2110.52 1684.81 2108.56C1683.6 2106.56 1682.02 2105 1680.06 2103.88C1678.14 2102.71 1675.83 2102.12 1673.12 2102.12C1670.46 2102.12 1668.16 2102.71 1666.25 2103.88C1664.33 2105 1662.77 2106.56 1661.56 2108.56C1660.35 2110.52 1659.46 2112.79 1658.87 2115.38C1658.29 2117.92 1658 2120.65 1658 2123.56ZM1857.6 2104.19V2158H1841.1V2090.38H1856.72L1857.6 2104.19ZM1878.16 2089.94L1877.91 2105.31C1876.99 2105.15 1875.95 2105.02 1874.78 2104.94C1873.66 2104.85 1872.6 2104.81 1871.6 2104.81C1869.05 2104.81 1866.82 2105.17 1864.91 2105.88C1862.99 2106.54 1861.39 2107.52 1860.1 2108.81C1858.85 2110.1 1857.89 2111.69 1857.22 2113.56C1856.55 2115.4 1856.18 2117.48 1856.1 2119.81L1852.53 2119.38C1852.53 2115.08 1852.97 2111.1 1853.85 2107.44C1854.72 2103.77 1855.99 2100.56 1857.66 2097.81C1859.32 2095.06 1861.41 2092.94 1863.91 2091.44C1866.45 2089.9 1869.37 2089.12 1872.66 2089.12C1873.57 2089.12 1874.55 2089.21 1875.6 2089.38C1876.68 2089.5 1877.53 2089.69 1878.16 2089.94ZM2040.51 2159.25C2035.38 2159.25 2030.78 2158.42 2026.69 2156.75C2022.61 2155.08 2019.13 2152.77 2016.26 2149.81C2013.42 2146.81 2011.23 2143.33 2009.69 2139.38C2008.19 2135.38 2007.44 2131.08 2007.44 2126.5V2124C2007.44 2118.79 2008.19 2114.06 2009.69 2109.81C2011.19 2105.52 2013.32 2101.83 2016.07 2098.75C2018.82 2095.67 2022.11 2093.29 2025.94 2091.62C2029.78 2089.96 2034.01 2089.12 2038.63 2089.12C2043.42 2089.12 2047.65 2089.94 2051.32 2091.56C2054.98 2093.15 2058.05 2095.4 2060.51 2098.31C2062.96 2101.23 2064.82 2104.73 2066.07 2108.81C2067.32 2112.85 2067.94 2117.33 2067.94 2122.25V2129.19H2014.94V2117.81H2051.69V2116.56C2051.61 2113.94 2051.11 2111.54 2050.19 2109.38C2049.28 2107.17 2047.86 2105.42 2045.94 2104.12C2044.03 2102.79 2041.55 2102.12 2038.51 2102.12C2036.05 2102.12 2033.9 2102.67 2032.07 2103.75C2030.28 2104.79 2028.78 2106.29 2027.57 2108.25C2026.4 2110.17 2025.53 2112.46 2024.94 2115.12C2024.36 2117.79 2024.07 2120.75 2024.07 2124V2126.5C2024.07 2129.33 2024.44 2131.96 2025.19 2134.38C2025.98 2136.79 2027.13 2138.9 2028.63 2140.69C2030.17 2142.44 2032.01 2143.81 2034.13 2144.81C2036.3 2145.77 2038.76 2146.25 2041.51 2146.25C2044.96 2146.25 2048.09 2145.58 2050.88 2144.25C2053.71 2142.88 2056.17 2140.85 2058.26 2138.19L2066.57 2146.81C2065.15 2148.9 2063.23 2150.9 2060.82 2152.81C2058.44 2154.73 2055.57 2156.29 2052.19 2157.5C2048.82 2158.67 2044.92 2159.25 2040.51 2159.25Z"
        fill="black" />
    <defs>
        <linearGradient id="paint0_linear_0_1" x1="474" y1="0" x2="474" y2="948" gradientUnits="userSpaceOnUse">
            <stop stop-color="#FF9900" stop-opacity="0.9" />
            <stop offset="1" stop-color="#C60000" />
        </linearGradient>
        <linearGradient id="paint1_linear_0_1" x1="474" y1="948" x2="474" y2="1896" gradientUnits="userSpaceOnUse">
            <stop stop-color="#FF9900" stop-opacity="0.9" />
            <stop offset="1" stop-color="#C60000" />
        </linearGradient>
        <linearGradient id="paint2_linear_0_1" x1="237.5" y1="0" x2="237.5" y2="1896" gradientUnits="userSpaceOnUse">
            <stop stop-color="#FF9900" stop-opacity="0.9" />
            <stop offset="1" stop-color="#C60000" />
        </linearGradient>
        <linearGradient id="paint3_linear_0_1" x1="1207.58" y1="-50" x2="2308.82" y2="687.722"
            gradientUnits="userSpaceOnUse">
            <stop stop-color="#B93131" stop-opacity="0.89" />
            <stop offset="1" stop-color="#51005F" />
        </linearGradient>
    </defs>
</svg>