<svg width="844" height="95" viewBox="0 0 844 95" fill="none" xmlns="http://www.w3.org/2000/svg">
<path d="M43.75 45.5C45.6667 45.75 47.7083 46.375 49.875 47.375C52.0417 48.375 54.0417 49.7917 55.875 51.625C57.7917 53.4583 59.375 55.7083 60.625 58.375C61.875 60.9583 62.5 63.9583 62.5 67.375C62.5 71.5417 61.875 75.125 60.625 78.125C59.375 81.125 57.7917 83.625 55.875 85.625C54.0417 87.5417 52 89.0833 49.75 90.25C47.5833 91.3333 45.4583 92.1667 43.375 92.75C41.375 93.3333 39.5833 93.7083 38 93.875C36.4167 93.9583 35.375 94 34.875 94H20.375V83H34C38.4167 83 41.875 81.5833 44.375 78.75C46.875 75.9167 48.125 72.125 48.125 67.375C48.125 62.875 46.8333 59.0833 44.25 56C41.6667 52.9167 37.875 51.375 32.875 51.375H20.375V41.25H26.375C28.2083 41.25 30.0833 41.2083 32 41.125C33.9167 41.0417 35.7083 40.5833 37.375 39.75C39.0417 38.9167 40.375 37.5 41.375 35.5C42.4583 33.5 43 30.625 43 26.875C43 25.375 42.7917 23.8333 42.375 22.25C41.9583 20.5833 41.125 19.0833 39.875 17.75C38.625 16.4167 36.8333 15.3333 34.5 14.5C32.1667 13.6667 29.0833 13.25 25.25 13.25H20.375V1.875H26.75C30.6667 1.875 34.4583 2.33333 38.125 3.25C41.7917 4.16667 45.0417 5.625 47.875 7.625C50.7083 9.625 52.9583 12.25 54.625 15.5C56.2917 18.6667 57.125 22.4583 57.125 26.875C57.125 29.4583 56.7083 31.8333 55.875 34C55.0417 36.0833 54 37.9167 52.75 39.5C51.5 41.0833 50.0417 42.4167 48.375 43.5C46.7917 44.5 45.25 45.1667 43.75 45.5ZM0.25 1.875H15.25V94H0.25V1.875ZM122.625 51.125V63.75H82.875V51.125H122.625ZM196.75 19.625C194.833 17.4583 192.792 15.8333 190.625 14.75C188.458 13.6667 186.125 13.0417 183.625 12.875V0.5C192.958 0.916667 200.792 4.20833 207.125 10.375L196.75 19.625ZM183.625 82.25C186.125 82 188.458 81.3333 190.625 80.25C192.875 79.1667 194.917 77.5833 196.75 75.5L207.125 84.625C203.958 87.7083 200.417 90.0833 196.5 91.75C192.583 93.4167 188.292 94.375 183.625 94.625V82.25ZM143.125 47.5C143.125 40.0833 144 33.5417 145.75 27.875C147.583 22.2083 150.083 17.4167 153.25 13.5C156.417 9.58333 160.125 6.54167 164.375 4.375C168.708 2.20833 173.417 0.916667 178.5 0.5V13C175.75 13.4167 173.167 14.375 170.75 15.875C168.333 17.2917 166.208 19.375 164.375 22.125C162.542 24.875 161.083 28.375 160 32.625C159 36.7917 158.458 41.75 158.375 47.5C158.458 53.3333 159 58.3333 160 62.5C161.083 66.6667 162.542 70.1667 164.375 73C166.208 75.8333 168.333 78 170.75 79.5C173.25 81 175.833 81.9167 178.5 82.25V94.5C173.417 94.1667 168.708 92.9167 164.375 90.75C160.125 88.5833 156.417 85.5417 153.25 81.625C150.083 77.7083 147.583 72.9167 145.75 67.25C144 61.5 143.125 54.9167 143.125 47.5ZM226.75 47.5C226.75 40.0833 227.625 33.5417 229.375 27.875C231.208 22.125 233.708 17.2917 236.875 13.375C240.125 9.375 243.917 6.33333 248.25 4.25C252.667 2.08333 257.458 0.833333 262.625 0.5V13C259.792 13.3333 257.125 14.2083 254.625 15.625C252.125 17.0417 249.958 19.125 248.125 21.875C246.292 24.625 244.833 28.125 243.75 32.375C242.667 36.625 242.083 41.6667 242 47.5C242.083 53.4167 242.667 58.5 243.75 62.75C244.833 66.9167 246.292 70.4167 248.125 73.25C250.042 76.0833 252.25 78.25 254.75 79.75C257.25 81.1667 259.875 82 262.625 82.25V94.625C257.542 94.2917 252.792 93.0833 248.375 91C243.958 88.8333 240.125 85.7917 236.875 81.875C233.708 77.875 231.208 73 229.375 67.25C227.625 61.5 226.75 54.9167 226.75 47.5ZM267.625 0.5C272.708 0.75 277.417 1.95833 281.75 4.125C286.167 6.29167 289.958 9.375 293.125 13.375C296.375 17.2917 298.917 22.125 300.75 27.875C302.583 33.5417 303.5 40.0833 303.5 47.5C303.5 54.9167 302.583 61.5 300.75 67.25C298.917 73 296.375 77.875 293.125 81.875C289.958 85.7917 286.208 88.8333 281.875 91C277.542 93.0833 272.792 94.2917 267.625 94.625V82.25C270.458 81.9167 273.125 81.0417 275.625 79.625C278.125 78.125 280.292 76 282.125 73.25C283.958 70.4167 285.417 66.9167 286.5 62.75C287.583 58.5 288.167 53.4167 288.25 47.5C288.167 41.5833 287.583 36.5417 286.5 32.375C285.417 28.125 283.917 24.625 282 21.875C280.167 19.0417 278 16.9167 275.5 15.5C273 14 270.375 13.125 267.625 12.875V0.5ZM324.625 1.875H339.875L364.625 58.75V81.875H360.625L339.875 30.625V94H324.625V1.875ZM394.5 1.875H409.75V94H394.5V30.625L373.875 81.875H369.75V59L394.5 1.875ZM432.75 1.875H448L472.75 58.75V81.875H468.75L448 30.625V94H432.75V1.875ZM502.625 1.875H517.875V94H502.625V30.625L482 81.875H477.875V59L502.625 1.875ZM541.25 1.875H556.5V94H541.25V1.875ZM595 52.5H561.625V42.25H595V52.5ZM561.625 82.625H598.875V94H561.625V82.625ZM598.875 1.875V13.25H561.625V1.875H598.875ZM619.125 1.875H634.125V94H619.125V1.875ZM681.625 94H665.75L648.375 60.625C648.125 60.625 647.833 60.6667 647.5 60.75C647.25 60.75 646.833 60.75 646.25 60.75C645.667 60.75 644.792 60.75 643.625 60.75C642.542 60.75 641.083 60.75 639.25 60.75V49.75H647.75C649.583 49.75 651.417 49.4583 653.25 48.875C655.083 48.2083 656.75 47.1667 658.25 45.75C659.75 44.3333 660.958 42.375 661.875 39.875C662.792 37.2917 663.25 34.125 663.25 30.375C663.25 28.875 663.042 27.1667 662.625 25.25C662.208 23.25 661.333 21.375 660 19.625C658.75 17.7917 656.958 16.2917 654.625 15.125C652.292 13.875 649.208 13.25 645.375 13.25H639.25V1.875H645.625C649.542 1.875 653.417 2.5 657.25 3.75C661.083 5 664.5 6.875 667.5 9.375C670.583 11.875 673.042 14.9167 674.875 18.5C676.792 22 677.75 25.9583 677.75 30.375C677.75 37.0417 676.208 42.7083 673.125 47.375C670.042 52.0417 665.875 55.5 660.625 57.75L681.625 94ZM753.875 19.625C751.958 17.4583 749.917 15.8333 747.75 14.75C745.583 13.6667 743.25 13.0417 740.75 12.875V0.5C750.083 0.916667 757.917 4.20833 764.25 10.375L753.875 19.625ZM740.75 82.25C743.25 82 745.583 81.3333 747.75 80.25C750 79.1667 752.042 77.5833 753.875 75.5L764.25 84.625C761.083 87.7083 757.542 90.0833 753.625 91.75C749.708 93.4167 745.417 94.375 740.75 94.625V82.25ZM700.25 47.5C700.25 40.0833 701.125 33.5417 702.875 27.875C704.708 22.2083 707.208 17.4167 710.375 13.5C713.542 9.58333 717.25 6.54167 721.5 4.375C725.833 2.20833 730.542 0.916667 735.625 0.5V13C732.875 13.4167 730.292 14.375 727.875 15.875C725.458 17.2917 723.333 19.375 721.5 22.125C719.667 24.875 718.208 28.375 717.125 32.625C716.125 36.7917 715.583 41.75 715.5 47.5C715.583 53.3333 716.125 58.3333 717.125 62.5C718.208 66.6667 719.667 70.1667 721.5 73C723.333 75.8333 725.458 78 727.875 79.5C730.375 81 732.958 81.9167 735.625 82.25V94.5C730.542 94.1667 725.833 92.9167 721.5 90.75C717.25 88.5833 713.542 85.5417 710.375 81.625C707.208 77.7083 704.708 72.9167 702.875 67.25C701.125 61.5 700.25 54.9167 700.25 47.5ZM786.125 1.875H801.375V94H786.125V1.875ZM839.875 52.5H806.5V42.25H839.875V52.5ZM806.5 82.625H843.75V94H806.5V82.625ZM843.75 1.875V13.25H806.5V1.875H843.75Z" fill="white"/>
</svg>
